# xmcd
# 
# Track frame offsets:
#     150
#     24182
#     56577
#     81575
#     105085
#     137295
# 
# Disc length: 2219
# 
# Revision: 4
# Processed by: cddbd v1.5.2PL0 Copyright (c) Steve Scherf et al.
# Submitted via: BonkEnc v1.0.8
# 
DISCID=3b08a906
DTITLE=Curtis Fuller - Blues-ette
DYEAR=1959
DGENRE=Jazz
TTITLE0=Five Spot After Dark
TTITLE1=Undecided
TTITLE2=Blues-ette
TTITLE3=Minor Vamp
TTITLE4=Love Your Spell Is Everywhere
TTITLE5=Twelve-Inch
EXTD=YEAR: 1959
EXTT0=
EXTT1=
EXTT2=
EXTT3=
EXTT4=
EXTT5=
PLAYORDER=
